# xmcd
#
# Track frame offsets: 
#        150
#        17472
#        35318
#        50984
#        65869
#        85154
#        98956
#        114035
#        130967
#        149472
#
# Disc length: 2200 seconds
#
# Revision: 2
# Processed by: cddbd v1.5.2PL0 Copyright (c) Steve Scherf et al.
# Submitted via: ExactAudioCopy v0.99pb5
#
DISCID=8808960a
DTITLE=Various Artist - 무한도전 서해안 고속도로 가요제
DYEAR=2011
DGENRE=Pop
TTITLE0=01 파리돼지앵 (정형돈, 정재형) - 순정마초
TTITLE1=02 바닷길 (길, 바다) - 나만 부를 수 있는 노래
TTITLE2=03 GG (박명수, G-Dragon) - 바람났어 feat. 박봄
TTITLE3=04 센치한 하하 (하하, 10cm) - 죽을래 사귈래
TTITLE4=05 스윗 콧소로우 (정준하, 스윗 소로우) - 정주나요
TTITLE5=06 처진 달팽이 (유재석, 이적) - 압구정 날라리
TTITLE6=07 철싸 (노홍철, 싸이) - 흔들어 주세요
TTITLE7=08 처진 달팽이 (유재석, 이적) - 말하는 대로
TTITLE8=09 처진 달팽이 (유재석, 이적) - 말하는 대로 (Remix Ver.)
TTITLE9=10 바닷길 (길, 바다) - 나만 부를 수 있는 노래 (Dance Ver.)
EXTD=YEAR: 2011
EXTT0=
EXTT1=
EXTT2=
EXTT3=
EXTT4=
EXTT5=
EXTT6=
EXTT7=
EXTT8=
EXTT9=
PLAYORDER=
